<svg xmlns="http://www.w3.org/2000/svg" version="1.1" xmlns:xlink="http://www.w3.org/1999/xlink" xmlns:svgjs="http://svgjs.dev/svgjs" width="1440" height="560" preserveAspectRatio="none" viewBox="0 0 1440 560"><g mask="url(&quot;#SvgjsMask1017&quot;)" fill="none"><rect width="1440" height="560" x="0" y="0" fill="rgba(253, 238, 255, 1)"></rect><path d="M 0,223 C 57.6,181 172.8,7.4 288,13 C 403.2,18.6 460.8,226.6 576,251 C 691.2,275.4 748.8,156.2 864,135 C 979.2,113.8 1036.8,161 1152,145 C 1267.2,129 1382.4,73 1440,55L1440 560L0 560z" fill="rgba(252, 214, 255, 1)"></path><path d="M 0,329 C 144,360.4 432,479.6 720,486 C 1008,492.4 1296,386 1440,361L1440 560L0 560z" fill="rgba(254, 201, 255, 1)"></path></g><defs><mask id="SvgjsMask1017"><rect width="1440" height="560" fill="#ffffff"></rect></mask></defs></svg>