<svg xmlns="http://www.w3.org/2000/svg" version="1.1" xmlns:xlink="http://www.w3.org/1999/xlink" xmlns:svgjs="http://svgjs.dev/svgjs" width="1439" height="452" preserveAspectRatio="none" viewBox="0 0 1439 452"><g mask="url(&quot;#SvgjsMask1016&quot;)" fill="none"><rect width="1439" height="452" x="0" y="0" fill="rgba(255, 222, 255, 1)"></rect><path d="M 0,1 C 144,21 432.2,97.6 720,101 C 1007.8,104.4 1295.2,34.6 1439,18L1439 452L0 452z" fill="rgba(253, 238, 255, 1)"></path><path d="M 0,124 C 96,134 288,170.8 480,174 C 672,177.2 768.2,139.8 960,140 C 1151.8,140.2 1343.2,168 1439,175L1439 452L0 452z" fill="rgba(255, 222, 255, 1)"></path><path d="M 0,283 C 287.8,273.6 1151.2,245.4 1439,236L1439 452L0 452z" fill="rgba(255, 222, 255, 1)"></path><path d="M 0,448 C 144,426.2 432.2,349.4 720,339 C 1007.8,328.6 1295.2,384.6 1439,396L1439 452L0 452z" fill="rgba(253, 238, 255, 1)"></path></g><defs><mask id="SvgjsMask1016"><rect width="1439" height="452" fill="#ffffff"></rect></mask></defs></svg>