<svg xmlns="http://www.w3.org/2000/svg" version="1.1" xmlns:xlink="http://www.w3.org/1999/xlink" xmlns:svgjs="http://svgjs.dev/svgjs" width="1440" height="400" preserveAspectRatio="none" viewBox="0 0 1440 400"><g mask="url(&quot;#SvgjsMask1042&quot;)" fill="none"><rect width="1440" height="400" x="0" y="0" fill="rgba(253, 238, 255, 1)"></rect><path d="M 0,126 C 96,108.6 288,40.4 480,39 C 672,37.6 768,121 960,119 C 1152,117 1344,47 1440,29L1440 400L0 400z" fill="rgba(255, 222, 255, 1)"></path><path d="M 0,148 C 288,167.2 1152,224.8 1440,244L1440 400L0 400z" fill="rgba(255, 222, 255, 1)"></path><path d="M 0,274 C 96,292.4 288,357.4 480,366 C 672,374.6 768,313.8 960,317 C 1152,320.2 1344,369 1440,382L1440 400L0 400z" fill="rgba(253, 238, 255, 1)"></path></g><defs><mask id="SvgjsMask1042"><rect width="1440" height="400" fill="#ffffff"></rect></mask></defs></svg>