<svg xmlns="http://www.w3.org/2000/svg" version="1.1" xmlns:xlink="http://www.w3.org/1999/xlink" xmlns:svgjs="http://svgjs.dev/svgjs" width="1439" height="452" preserveAspectRatio="none" viewBox="0 0 1439 452"><g mask="url(&quot;#SvgjsMask1021&quot;)" fill="none"><rect width="1439" height="452" x="0" y="0" fill="rgba(255, 222, 255, 1)"></rect><path d="M 0,66 C 144,55 432.2,12.4 720,11 C 1007.8,9.6 1295.2,49.4 1439,59L1439 452L0 452z" fill="rgba(253, 238, 255, 1)"></path><path d="M 0,157 C 96,161.6 288,180.6 480,180 C 672,179.4 768.2,147.2 960,154 C 1151.8,160.8 1343.2,202 1439,214L1439 452L0 452z" fill="rgba(255, 222, 255, 1)"></path><path d="M 0,297 C 144,289.2 432.2,253.6 720,258 C 1007.8,262.4 1295.2,306.8 1439,319L1439 452L0 452z" fill="rgba(255, 222, 255, 1)"></path><path d="M 0,404 C 144,397.4 432.2,362 720,371 C 1007.8,380 1295.2,433.4 1439,449L1439 452L0 452z" fill="rgba(253, 238, 255, 1)"></path></g><defs><mask id="SvgjsMask1021"><rect width="1439" height="452" fill="#ffffff"></rect></mask></defs></svg>